<svg width="824" height="343" viewBox="0 0 824 343" fill="none" xmlns="http://www.w3.org/2000/svg">
<path d="M342.556 18.5907C342.863 18.9005 343.555 19.1329 344.632 19.2879C345.708 19.2879 346.631 19.6752 347.4 20.4498C348.322 21.2244 349.629 23.7806 351.321 28.1184C353.166 32.4563 354.089 36.0969 354.089 39.0405C354.089 41.8291 353.704 44.8501 352.936 48.1034C352.32 51.2019 351.244 52.7511 349.706 52.7511C347.092 52.7511 344.939 49.7301 343.248 43.6882C341.556 37.4912 340.326 33.6182 339.557 32.069C335.252 22.9285 330.638 16.2669 325.718 12.084C321.258 7.90105 316.722 5.80959 312.109 5.80959C310.11 5.80959 308.111 6.1969 306.112 6.97151C296.27 11.1544 291.35 20.9145 291.35 36.2519C291.35 41.2094 292.272 47.0964 294.117 53.913C295.963 60.5747 298.808 66.4618 302.652 71.5742C303.421 72.5037 307.496 73.2784 314.877 73.898C318.721 74.3628 320.951 75.7571 321.566 78.081C322.181 80.2499 321.258 81.954 318.798 83.1934C317.414 84.8975 312.109 84.4328 302.883 81.7991C300.422 81.1794 298.808 80.7921 298.039 80.6372C289.735 80.7921 280.355 82.6512 269.898 86.2144C259.442 89.7776 249.831 95.2774 241.066 102.714C232.301 109.995 227.918 118.051 227.918 126.882C227.918 133.543 230.609 138.888 235.991 142.916C241.373 147.099 249.985 149.19 261.825 149.19C273.819 149.19 287.121 147.331 301.729 143.613C316.491 139.895 328.024 135.867 336.328 131.529C344.786 127.191 353.089 121.072 361.239 113.171C369.389 105.27 373.464 98.4533 373.464 92.7211C373.464 91.7916 373.387 91.017 373.234 90.3973C373.234 89.7776 373.387 89.3903 373.695 89.2354C374.617 88.7706 375.386 88.8481 376.001 89.4678C378 93.3408 379 96.3618 379 98.5307C379 104.883 376.924 110.615 372.772 115.727C365.545 124.558 357.395 131.529 348.322 136.642C339.25 141.754 326.794 146.092 310.956 149.655C295.271 153.218 282.2 155 271.744 155C261.287 155 252.368 154.07 244.987 152.211C237.76 150.352 231.455 146.634 226.073 141.057C220.691 135.48 218 128.663 218 120.607C218 112.396 219.922 105.502 223.766 99.925C227.765 94.1929 232.455 89.7776 237.837 86.6792C243.372 83.5807 249.985 81.0245 257.673 79.0105C269.053 75.912 281.739 73.9755 295.732 73.2009C285.737 61.7366 279.817 48.4907 277.971 33.4633C277.818 31.7591 277.741 30.1324 277.741 28.5832C277.741 23.006 279.048 17.8936 281.662 13.2459C284.43 8.44327 288.966 5.03497 295.271 3.02098C301.575 1.00699 306.266 0 309.341 0C312.416 0 314.646 0.232383 316.03 0.697145C317.568 1.00699 318.875 1.3943 319.951 1.85906C321.028 2.16891 322.104 2.71114 323.181 3.48576C324.257 4.10545 325.18 4.64767 325.948 5.11243C326.717 5.57721 327.64 6.35182 328.716 7.43628C329.793 8.36582 330.562 9.06297 331.023 9.52774C331.484 9.83758 332.33 10.6122 333.56 11.8516C334.79 12.936 335.559 13.5557 335.867 13.7106C338.173 16.4992 340.403 18.1259 342.556 18.5907Z" fill="#FF008A"/>
<path d="M459.35 19.2267C459.35 10.4731 454.768 6.09628 445.604 6.09628C437.682 6.09628 427.353 9.84783 414.616 17.3509C402.034 24.854 389.064 36.3432 375.706 51.8183C362.348 67.1372 353.028 83.2376 347.747 100.12C345.572 106.841 344.485 113.094 344.485 118.877C344.485 124.505 346.116 129.429 349.378 133.649C355.125 141.152 364.522 144.982 377.57 145.138C378.502 145.138 379.356 145.138 380.133 145.138C394.578 145.138 410.189 141.465 426.964 134.118C443.74 126.615 457.176 115.673 467.272 101.292C468.049 100.198 468.825 99.9633 469.602 100.589C470.534 101.214 471 101.761 471 102.23C471 102.699 470.845 103.09 470.534 103.402C459.04 119.19 444.905 131.07 428.129 139.042C411.354 147.014 395.122 151 379.434 151C362.969 151 350.543 146.311 342.155 136.932C336.718 130.835 334 122.863 334 113.016C334 96.4462 340.213 78.6263 352.639 59.5559C369.57 33.6077 390.074 15.6315 414.15 5.62733C423.469 1.87578 432.401 0 440.944 0C451.506 0 459.04 2.50103 463.544 7.50311C466.495 10.942 467.971 14.9281 467.971 19.4612C467.971 28.0585 463.467 36.8903 454.457 45.9565C445.448 55.0228 435.43 62.2914 424.401 67.7624C413.528 73.0771 404.053 76.1253 395.976 76.9068C392.714 77.2195 391.161 76.3597 391.316 74.3276C391.472 71.514 393.413 69.9508 397.141 69.6382C409.567 68.544 420.984 64.7924 431.391 58.3835C441.798 51.8183 449.798 43.1429 455.389 32.3571C458.03 28.1366 459.35 23.7598 459.35 19.2267Z" fill="#FF008A"/>
<path d="M120.358 88.0559V150H102V6H168.372C183.704 6 195.136 9.75418 202.668 17.2626C209.258 23.8324 212.553 32.9497 212.553 44.6145C212.553 52.7933 210.737 59.5642 207.106 64.9274C203.609 70.2905 197.759 74.9832 189.555 79.0056C196.145 81.5531 200.987 84.9721 204.08 89.2626C207.173 93.6871 208.922 102.737 209.325 116.413C209.594 126.469 210.199 133.24 211.141 136.726C212.217 140.078 214.503 142.961 218 145.374V150H195.809C192.85 143.832 191.37 137.33 191.37 130.492L191.572 107.966C191.572 106.492 190.967 104.212 189.757 101.128C188.546 98.0447 187.403 95.8324 186.327 94.4916C182.696 90.2011 176.509 88.0559 167.767 88.0559H120.358ZM120.358 71.7654H164.943C183.906 71.7654 193.388 63.5196 193.388 47.0279C193.388 30.5363 183.906 22.2905 164.943 22.2905H120.358V71.7654Z" fill="#FF008A"/>
<path d="M535.286 106.76H479.787L464.505 150H445L496.276 6H520.004L570.475 150H550.166L535.286 106.76ZM530.058 91.2737L507.939 25.9106L484.412 91.2737H530.058Z" fill="#FF008A"/>
<path d="M609.54 89.0615V150H591.242V6H650.762C665.91 6 677.305 10.1564 684.946 18.4693C691.649 25.7095 695 35.6313 695 48.2346C695 60.9721 690.911 71.095 682.734 78.6033C675.227 85.5754 665.91 89.0615 654.784 89.0615H609.54ZM609.54 72.771H647.947C656.66 72.771 663.497 70.5587 668.457 66.1341C673.417 61.7095 675.897 55.4749 675.897 47.4302C675.897 39.5196 673.417 33.352 668.457 28.9274C663.497 24.5028 656.66 22.2905 647.947 22.2905H609.54V72.771Z" fill="#FF008A"/>
<path d="M393.71 209.29V337H375.424V209.29H328V193H440.732V209.29H393.71Z" fill="#FF008A"/>
<path d="M470.595 193V337H451.907V193H470.595Z" fill="#FF008A"/>
<path d="M692.926 293.76H637.464L622.192 337H602.7L653.942 193H677.654L728.092 337H707.797L692.926 293.76ZM687.702 278.274L665.597 212.911L642.086 278.274H687.702Z" fill="#FF008A"/>
<path d="M753.065 193V320.71H824V337H734.779V193H753.065Z" fill="#FF008A"/>
<path d="M331 192.428C331 196.275 329.431 200.734 326.293 205.806C323.678 210.528 320.715 213.763 317.403 215.512C314.265 217.261 312.696 217.086 312.696 214.987C312.696 214.812 313.655 213.763 315.572 211.839C321.325 206.418 324.201 201.959 324.201 198.461C324.201 190.941 316.792 187.181 301.975 187.181C295.699 187.181 287.418 188.405 277.133 190.854C266.848 193.127 256.911 196.887 247.323 202.134C236.166 208.254 230.588 213.588 230.588 218.135C230.588 221.808 233.987 225.305 240.786 228.628C244.447 230.377 251.681 233.35 262.49 237.547C273.472 241.569 282.276 245.154 288.9 248.302C295.699 251.275 302.062 255.56 307.989 261.156C314.09 266.752 317.141 272.96 317.141 279.781C317.141 286.601 313.132 294.033 305.113 302.078C292.91 313.795 277.046 323.501 257.521 331.196C237.997 339.065 221.261 343 207.315 343C179.772 343 166 335.218 166 319.653C166 304.089 174.455 290.886 191.365 280.043C205.311 270.424 219.954 265.615 235.295 265.615C238.956 265.615 240.612 266.227 240.263 267.452C239.914 268.676 237.3 269.375 232.418 269.55C227.537 269.55 221.261 271.211 213.591 274.534C205.921 277.682 198.773 282.316 192.149 288.437C183.433 296.307 179.074 304.176 179.074 312.046C179.074 316.943 181.428 321.315 186.135 325.162C190.841 329.01 199.819 330.933 213.068 330.933C226.317 330.933 239.391 328.835 252.292 324.638C280.184 315.369 297.616 305.226 304.59 294.208C307.379 290.186 308.773 286.776 308.773 283.978C308.773 275.933 303.892 269.638 294.13 265.091C282.799 259.844 266.935 253.811 246.539 246.99C238.694 244.367 231.983 240.957 226.404 236.76C221 232.388 218.298 227.229 218.298 221.283C218.298 215.162 221.523 209.216 227.973 203.445C234.597 197.499 242.529 192.777 251.769 189.28C271.642 181.76 288.464 178 302.236 178C321.412 178 331 182.809 331 192.428Z" fill="#FF008A"/>
<path d="M517.827 343C505.369 343 499.14 336.947 499.14 324.842C499.14 316.449 504.746 297.081 515.958 266.737C529.108 231.228 536.514 208.632 538.175 198.947C523.918 198.947 511.321 201.449 500.386 206.453C489.589 211.295 484.191 218.235 484.191 227.274C484.191 229.695 484.744 231.874 485.852 233.811C486.959 235.747 488.067 237.119 489.174 237.926C491.389 239.54 493.88 241.154 496.649 242.768C498.31 244.221 498.587 245.109 497.479 245.432C497.064 245.432 496.579 245.351 496.026 245.189C492.842 244.382 489.382 242.042 485.644 238.168C481.907 234.295 479.969 229.856 479.83 224.853C479.277 223.239 479 221.786 479 220.495C479 212.747 482.045 206.211 488.136 200.884C494.365 195.558 501.286 192.168 508.899 190.716C516.651 189.102 522.88 188.295 527.586 188.295C532.292 188.295 535.96 188.375 538.59 188.537C538.452 187.407 538.037 186.197 537.344 184.905C536.652 183.614 537.068 182.726 538.59 182.242C538.729 182.242 538.936 182.242 539.213 182.242C540.597 182.242 541.912 183.453 543.158 185.874L544.196 189.263C552.086 190.554 558.661 192.572 563.921 195.316C565.998 196.284 567.659 197.979 568.905 200.4C570.15 202.66 569.735 203.709 567.659 203.547C566.413 203.547 564.129 202.902 560.807 201.611C557.485 200.158 552.017 199.27 544.404 198.947C543.712 215.249 539.905 232.6 532.984 251C519.696 287.154 513.052 311.607 513.052 324.358C513.052 332.589 515.889 336.705 521.565 336.705C528.486 336.705 538.313 331.056 551.048 319.758C566.136 306.684 580.67 287.154 594.651 261.168C596.45 257.779 599.842 251.323 604.825 241.8C614.376 223.4 622.404 209.519 628.91 200.158C633.063 194.186 637.7 189.667 642.821 186.6C648.081 183.533 652.165 182 655.072 182C657.979 182 660.193 182.484 661.716 183.453C663.239 184.26 664 185.067 664 185.874C664 186.519 663.654 186.842 662.962 186.842L660.678 186.6C656.11 186.6 649.673 192.491 641.368 204.274C636.108 211.698 628.772 222.754 619.359 237.442C610.085 252.13 603.371 262.621 599.219 268.916C581.501 294.902 566.205 313.786 553.332 325.568C540.459 337.189 528.624 343 517.827 343Z" fill="#FF008A"/>
<path d="M201.066 197.79C201.394 198.12 202.134 198.367 203.284 198.532C204.434 198.532 205.419 198.945 206.241 199.769C207.226 200.594 208.623 203.315 210.43 207.933C212.401 212.55 213.387 216.426 213.387 219.559C213.387 222.528 212.976 225.744 212.155 229.207C211.498 232.505 210.348 234.154 208.705 234.154C205.912 234.154 203.612 230.939 201.805 224.507C199.998 217.91 198.684 213.787 197.862 212.138C193.263 202.408 188.334 195.316 183.077 190.864C178.313 186.411 173.467 184.184 168.539 184.184C166.403 184.184 164.267 184.597 162.132 185.421C151.618 189.874 146.361 200.264 146.361 216.591C146.361 221.868 147.347 228.135 149.318 235.391C151.289 242.483 154.329 248.75 158.436 254.192C159.257 255.181 163.61 256.006 171.496 256.666C175.603 257.16 177.985 258.645 178.642 261.118C179.299 263.427 178.313 265.241 175.685 266.561C174.206 268.375 168.539 267.88 158.682 265.076C156.053 264.417 154.329 264.004 153.507 263.84C144.636 264.004 134.615 265.984 123.444 269.777C112.273 273.57 102.006 279.424 92.6419 287.34C83.278 295.091 78.596 303.667 78.596 313.067C78.596 320.159 81.4709 325.849 87.2206 330.136C92.9704 334.589 102.17 336.816 114.819 336.816C127.633 336.816 141.843 334.837 157.45 330.879C173.221 326.921 185.542 322.633 194.413 318.015C203.448 313.397 212.319 306.883 221.026 298.472C229.733 290.061 234.086 282.805 234.086 276.703C234.086 275.714 234.004 274.889 233.84 274.229C233.84 273.57 234.004 273.157 234.332 272.992C235.318 272.498 236.139 272.58 236.797 273.24C238.932 277.363 240 280.579 240 282.888C240 289.649 237.782 295.751 233.347 301.193C225.626 310.594 216.919 318.015 207.226 323.457C197.534 328.9 184.227 333.517 167.307 337.31C150.55 341.103 136.586 343 125.415 343C114.245 343 104.716 342.01 96.8309 340.031C89.1098 338.052 82.3744 334.094 76.6246 328.157C70.8749 322.22 68 314.964 68 306.388C68 297.648 70.0535 290.309 74.1605 284.372C78.4317 278.27 83.4422 273.57 89.192 270.271C95.106 266.973 102.17 264.252 110.384 262.108C122.541 258.81 136.094 256.748 151.043 255.924C140.365 243.72 134.04 229.619 132.069 213.622C131.904 211.808 131.822 210.076 131.822 208.427C131.822 202.49 133.219 197.048 136.011 192.1C138.968 186.988 143.815 183.36 150.55 181.216C157.286 179.072 162.296 178 165.582 178C168.867 178 171.249 178.247 172.728 178.742C174.371 179.072 175.767 179.484 176.917 179.979C178.067 180.309 179.217 180.886 180.367 181.711C181.517 182.37 182.502 182.948 183.324 183.442C184.145 183.937 185.131 184.762 186.281 185.916C187.431 186.906 188.252 187.648 188.745 188.142C189.238 188.472 190.141 189.297 191.456 190.616C192.77 191.771 193.591 192.43 193.92 192.595C196.384 195.564 198.766 197.295 201.066 197.79Z" fill="#FF008A"/>
<path d="M18.2 271.436V337H0V193H96V209.29H18.2V255.145H86.6V271.436H18.2Z" fill="#FF008A"/>
</svg>
